<mxfile host="65bd71144e">
    <diagram id="o_gsZ9pdi_LcSViXJfMN" name="Page-1">
        <mxGraphModel dx="2077" dy="1383" grid="0" gridSize="10" guides="1" tooltips="1" connect="1" arrows="1" fold="1" page="0" pageScale="1" pageWidth="1100" pageHeight="850" background="#ffffff" math="0" shadow="0">
            <root>
                <mxCell id="0"/>
                <mxCell id="1" parent="0"/>
                <mxCell id="31" value="Data base" style="shape=cylinder3;whiteSpace=wrap;html=1;boundedLbl=1;backgroundOutline=1;size=15;" parent="1" vertex="1">
                    <mxGeometry x="911" y="447" width="105" height="140" as="geometry"/>
                </mxCell>
                <mxCell id="38" value="" style="group" parent="1" vertex="1" connectable="0">
                    <mxGeometry x="-211" y="314" width="100" height="50" as="geometry"/>
                </mxCell>
                <mxCell id="8" value="" style="rounded=1;whiteSpace=wrap;html=1;" parent="38" vertex="1">
                    <mxGeometry width="100" height="50" as="geometry"/>
                </mxCell>
                <mxCell id="12" value="&lt;font style=&quot;font-size: 22px;&quot;&gt;Admin&lt;/font&gt;" style="text;strokeColor=none;fillColor=none;html=1;fontSize=24;fontStyle=1;verticalAlign=middle;align=center;" parent="38" vertex="1">
                    <mxGeometry x="8.333333333333334" y="8.333333333333334" width="83.33333333333334" height="33.333333333333336" as="geometry"/>
                </mxCell>
                <mxCell id="42" value="" style="group" parent="1" vertex="1" connectable="0">
                    <mxGeometry x="-213" y="463" width="100" height="50" as="geometry"/>
                </mxCell>
                <mxCell id="7" value="" style="rounded=1;whiteSpace=wrap;html=1;" parent="42" vertex="1">
                    <mxGeometry width="100" height="50" as="geometry"/>
                </mxCell>
                <mxCell id="13" value="&lt;font style=&quot;font-size: 22px;&quot;&gt;Teacher&lt;/font&gt;" style="text;strokeColor=none;fillColor=none;html=1;fontSize=24;fontStyle=1;verticalAlign=middle;align=center;" parent="42" vertex="1">
                    <mxGeometry x="8.333333333333334" y="8.333333333333334" width="83.33333333333334" height="33.333333333333336" as="geometry"/>
                </mxCell>
                <mxCell id="43" value="" style="group" parent="1" vertex="1" connectable="0">
                    <mxGeometry x="-211" y="639" width="98" height="49" as="geometry"/>
                </mxCell>
                <mxCell id="9" value="" style="rounded=1;whiteSpace=wrap;html=1;" parent="43" vertex="1">
                    <mxGeometry y="-0.8166666666666667" width="98" height="49" as="geometry"/>
                </mxCell>
                <mxCell id="14" value="&lt;font style=&quot;font-size: 22px;&quot;&gt;Student&lt;/font&gt;" style="text;strokeColor=none;fillColor=none;html=1;fontSize=24;fontStyle=1;verticalAlign=middle;align=center;" parent="43" vertex="1">
                    <mxGeometry x="8.166666666666666" y="8.166666666666666" width="81.66666666666667" height="32.666666666666664" as="geometry"/>
                </mxCell>
                <mxCell id="52" value="&lt;ul&gt;&lt;li data-end=&quot;353&quot; data-start=&quot;334&quot;&gt;&lt;p data-end=&quot;353&quot; data-start=&quot;336&quot;&gt;&lt;font style=&quot;font-size: 13px;&quot;&gt;&lt;b style=&quot;&quot;&gt;Add Departments&lt;/b&gt;&lt;/font&gt;&lt;/p&gt;&lt;/li&gt;&lt;li data-end=&quot;380&quot; data-start=&quot;354&quot;&gt;&lt;p data-end=&quot;380&quot; data-start=&quot;356&quot;&gt;&lt;font style=&quot;font-size: 13px;&quot;&gt;&lt;b&gt;Add Courses / Subjects&lt;/b&gt;&lt;/font&gt;&lt;/p&gt;&lt;/li&gt;&lt;li data-end=&quot;398&quot; data-start=&quot;381&quot;&gt;&lt;p data-end=&quot;398&quot; data-start=&quot;383&quot;&gt;&lt;font style=&quot;font-size: 13px;&quot;&gt;&lt;b&gt;Add Semesters&lt;/b&gt;&lt;/font&gt;&lt;/p&gt;&lt;/li&gt;&lt;li data-end=&quot;420&quot; data-start=&quot;399&quot;&gt;&lt;p data-end=&quot;420&quot; data-start=&quot;401&quot;&gt;&lt;font style=&quot;font-size: 13px;&quot;&gt;&lt;b&gt;Register Teachers&lt;/b&gt;&lt;/font&gt;&lt;/p&gt;&lt;/li&gt;&lt;li data-end=&quot;442&quot; data-start=&quot;421&quot;&gt;&lt;p data-end=&quot;442&quot; data-start=&quot;423&quot;&gt;&lt;font style=&quot;font-size: 13px;&quot;&gt;&lt;b&gt;Register Students&lt;/b&gt;&lt;/font&gt;&lt;/p&gt;&lt;/li&gt;&lt;li data-end=&quot;482&quot; data-start=&quot;443&quot;&gt;&lt;p data-end=&quot;482&quot; data-start=&quot;445&quot;&gt;&lt;font style=&quot;font-size: 13px;&quot;&gt;&lt;b&gt;Assign Courses/Subjects to Teachers&amp;nbsp;&lt;/b&gt;&lt;/font&gt;&lt;/p&gt;&lt;/li&gt;&lt;li data-end=&quot;586&quot; data-start=&quot;547&quot;&gt;&lt;p data-end=&quot;586&quot; data-start=&quot;549&quot;&gt;&lt;b&gt;&lt;font style=&quot;font-size: 13px;&quot;&gt;Updated student records in database&lt;/font&gt;&lt;/b&gt;&lt;/p&gt;&lt;/li&gt;&lt;li data-end=&quot;586&quot; data-start=&quot;547&quot;&gt;&lt;p data-end=&quot;586&quot; data-start=&quot;549&quot;&gt;&lt;span style=&quot;color: rgb(63, 63, 63); background-color: transparent;&quot;&gt;&lt;b&gt;&lt;font style=&quot;font-size: 13px;&quot;&gt;Updated teacher records in database&lt;/font&gt;&lt;/b&gt;&lt;/span&gt;&lt;/p&gt;&lt;/li&gt;&lt;/ul&gt;" style="text;strokeColor=none;fillColor=default;html=1;whiteSpace=wrap;verticalAlign=middle;overflow=hidden;rounded=0;labelBorderColor=default;" parent="1" vertex="1">
                    <mxGeometry x="560" y="-2" width="280" height="400" as="geometry"/>
                </mxCell>
                <mxCell id="53" style="edgeStyle=none;html=1;exitX=1;exitY=0.5;exitDx=0;exitDy=0;entryX=0.005;entryY=0.483;entryDx=0;entryDy=0;entryPerimeter=0;" parent="1" source="20" target="52" edge="1">
                    <mxGeometry relative="1" as="geometry">
                        <Array as="points">
                            <mxPoint x="524" y="359"/>
                            <mxPoint x="524" y="191"/>
                        </Array>
                    </mxGeometry>
                </mxCell>
                <mxCell id="57" value="" style="group" parent="1" vertex="1" connectable="0">
                    <mxGeometry x="358" y="444" width="135" height="90" as="geometry"/>
                </mxCell>
                <mxCell id="21" value="" style="shape=ext;double=1;rounded=0;whiteSpace=wrap;html=1;" parent="57" vertex="1">
                    <mxGeometry width="135" height="90" as="geometry"/>
                </mxCell>
                <mxCell id="24" value="&lt;font style=&quot;font-weight: normal; font-size: 14px;&quot;&gt;Teacher Dashboard&lt;/font&gt;" style="text;strokeColor=none;fillColor=none;html=1;fontSize=24;fontStyle=1;verticalAlign=middle;align=center;" parent="57" vertex="1">
                    <mxGeometry x="27.5" y="25" width="80" height="40" as="geometry"/>
                </mxCell>
                <mxCell id="68" value="" style="group" parent="1" vertex="1" connectable="0">
                    <mxGeometry x="19" y="459.5" width="110" height="55" as="geometry"/>
                </mxCell>
                <mxCell id="69" value="" style="rounded=1;whiteSpace=wrap;html=1;arcSize=22;" parent="68" vertex="1">
                    <mxGeometry width="110" height="55" as="geometry"/>
                </mxCell>
                <mxCell id="70" value="&lt;font style=&quot;font-size: 21px;&quot;&gt;Login&lt;/font&gt;" style="text;strokeColor=none;fillColor=none;html=1;fontSize=24;fontStyle=1;verticalAlign=middle;align=center;" parent="68" vertex="1">
                    <mxGeometry x="9.166666666666666" y="9.166666666666666" width="91.66666666666666" height="36.666666666666664" as="geometry"/>
                </mxCell>
                <mxCell id="74" value="" style="group" parent="1" vertex="1" connectable="0">
                    <mxGeometry x="358" y="583" width="135" height="90" as="geometry"/>
                </mxCell>
                <mxCell id="22" value="" style="shape=ext;double=1;rounded=0;whiteSpace=wrap;html=1;" parent="74" vertex="1">
                    <mxGeometry y="-2" width="135" height="90" as="geometry"/>
                </mxCell>
                <mxCell id="25" value="&lt;font style=&quot;font-weight: normal; font-size: 14px;&quot;&gt;Student Dashboard&lt;/font&gt;" style="text;strokeColor=none;fillColor=none;html=1;fontSize=24;fontStyle=1;verticalAlign=middle;align=center;" parent="74" vertex="1">
                    <mxGeometry x="27.5" y="17" width="80" height="40" as="geometry"/>
                </mxCell>
                <mxCell id="75" value="&lt;ul&gt;&lt;li data-end=&quot;353&quot; data-start=&quot;334&quot;&gt;&lt;p data-end=&quot;353&quot; data-start=&quot;336&quot;&gt;&lt;span style=&quot;font-size: 13px;&quot;&gt;&lt;b&gt;View assigned courses &amp;amp; subjects&lt;/b&gt;&lt;/span&gt;&lt;/p&gt;&lt;/li&gt;&lt;li data-end=&quot;353&quot; data-start=&quot;334&quot;&gt;&lt;p data-end=&quot;353&quot; data-start=&quot;336&quot;&gt;&lt;span style=&quot;font-size: 13px;&quot;&gt;&lt;b&gt;Marks Students Attendance&lt;/b&gt;&lt;/span&gt;&lt;/p&gt;&lt;/li&gt;&lt;li data-end=&quot;380&quot; data-start=&quot;354&quot;&gt;&lt;p data-end=&quot;380&quot; data-start=&quot;356&quot;&gt;&lt;span style=&quot;font-size: 13px;&quot;&gt;&lt;b&gt;Upload Students Marks&lt;/b&gt;&lt;/span&gt;&lt;/p&gt;&lt;/li&gt;&lt;li data-end=&quot;586&quot; data-start=&quot;547&quot;&gt;&lt;p data-end=&quot;586&quot; data-start=&quot;549&quot;&gt;&lt;b&gt;&lt;font style=&quot;font-size: 13px;&quot;&gt;Updated student records in database&lt;/font&gt;&lt;/b&gt;&lt;/p&gt;&lt;/li&gt;&lt;/ul&gt;" style="text;strokeColor=none;fillColor=default;html=1;whiteSpace=wrap;verticalAlign=middle;overflow=hidden;rounded=0;labelBorderColor=default;" parent="1" vertex="1">
                    <mxGeometry x="564" y="407" width="280" height="220" as="geometry"/>
                </mxCell>
                <mxCell id="79" value="" style="endArrow=classic;startArrow=classic;html=1;entryX=0;entryY=0.5;entryDx=0;entryDy=0;entryPerimeter=0;exitX=1;exitY=0.5;exitDx=0;exitDy=0;" parent="1" source="75" target="31" edge="1">
                    <mxGeometry width="50" height="50" relative="1" as="geometry">
                        <mxPoint x="460" y="360" as="sourcePoint"/>
                        <mxPoint x="510" y="310" as="targetPoint"/>
                        <Array as="points"/>
                    </mxGeometry>
                </mxCell>
                <mxCell id="82" value="" style="endArrow=classic;startArrow=classic;html=1;entryX=0.996;entryY=0.48;entryDx=0;entryDy=0;entryPerimeter=0;exitX=0.5;exitY=0;exitDx=0;exitDy=0;exitPerimeter=0;" parent="1" source="31" target="52" edge="1">
                    <mxGeometry width="50" height="50" relative="1" as="geometry">
                        <mxPoint x="460" y="360" as="sourcePoint"/>
                        <mxPoint x="510" y="310" as="targetPoint"/>
                        <Array as="points">
                            <mxPoint x="964" y="190"/>
                        </Array>
                    </mxGeometry>
                </mxCell>
                <mxCell id="92" value="&lt;ul&gt;&lt;li data-end=&quot;353&quot; data-start=&quot;334&quot;&gt;&lt;p data-end=&quot;353&quot; data-start=&quot;336&quot;&gt;&lt;span style=&quot;font-size: 13px;&quot;&gt;&lt;b&gt;View assigned courses &amp;amp; subjects&lt;/b&gt;&lt;/span&gt;&lt;/p&gt;&lt;/li&gt;&lt;li data-end=&quot;353&quot; data-start=&quot;334&quot;&gt;&lt;p data-end=&quot;353&quot; data-start=&quot;336&quot;&gt;&lt;span style=&quot;font-size: 13px;&quot;&gt;&lt;b&gt;View Attendance&lt;/b&gt;&lt;/span&gt;&lt;/p&gt;&lt;/li&gt;&lt;li data-end=&quot;380&quot; data-start=&quot;354&quot;&gt;&lt;p data-end=&quot;380&quot; data-start=&quot;356&quot;&gt;&lt;span style=&quot;font-size: 13px;&quot;&gt;&lt;b&gt;View Marks&lt;/b&gt;&lt;/span&gt;&lt;/p&gt;&lt;/li&gt;&lt;li data-end=&quot;586&quot; data-start=&quot;547&quot;&gt;&lt;p data-end=&quot;586&quot; data-start=&quot;549&quot;&gt;&lt;b&gt;&lt;font style=&quot;font-size: 13px;&quot;&gt;Updated student Personal Details in database&lt;/font&gt;&lt;/b&gt;&lt;/p&gt;&lt;/li&gt;&lt;/ul&gt;" style="text;strokeColor=none;fillColor=default;html=1;whiteSpace=wrap;verticalAlign=middle;overflow=hidden;rounded=0;labelBorderColor=default;" parent="1" vertex="1">
                    <mxGeometry x="560" y="636" width="280" height="230" as="geometry"/>
                </mxCell>
                <mxCell id="94" value="" style="endArrow=classic;startArrow=classic;html=1;entryX=0.5;entryY=1;entryDx=0;entryDy=0;entryPerimeter=0;exitX=1;exitY=0.5;exitDx=0;exitDy=0;" parent="1" source="92" target="31" edge="1">
                    <mxGeometry width="50" height="50" relative="1" as="geometry">
                        <mxPoint x="460" y="480" as="sourcePoint"/>
                        <mxPoint x="510" y="430" as="targetPoint"/>
                        <Array as="points">
                            <mxPoint x="964" y="751"/>
                        </Array>
                    </mxGeometry>
                </mxCell>
                <mxCell id="106" style="edgeStyle=none;html=1;exitX=1;exitY=0.25;exitDx=0;exitDy=0;entryX=0;entryY=0.5;entryDx=0;entryDy=0;" edge="1" parent="1" source="66" target="20">
                    <mxGeometry relative="1" as="geometry">
                        <Array as="points">
                            <mxPoint x="326" y="473"/>
                            <mxPoint x="326" y="359"/>
                        </Array>
                    </mxGeometry>
                </mxCell>
                <mxCell id="107" style="edgeStyle=none;html=1;exitX=1;exitY=0.5;exitDx=0;exitDy=0;entryX=0;entryY=0.5;entryDx=0;entryDy=0;" edge="1" parent="1" source="66" target="21">
                    <mxGeometry relative="1" as="geometry"/>
                </mxCell>
                <mxCell id="108" style="edgeStyle=none;html=1;exitX=1;exitY=0.75;exitDx=0;exitDy=0;entryX=0;entryY=0.5;entryDx=0;entryDy=0;" edge="1" parent="1" source="66" target="22">
                    <mxGeometry relative="1" as="geometry">
                        <Array as="points">
                            <mxPoint x="328" y="503"/>
                            <mxPoint x="328" y="626"/>
                        </Array>
                    </mxGeometry>
                </mxCell>
                <mxCell id="66" value="&lt;font style=&quot;font-size: 13px;&quot;&gt;&lt;b&gt;Validate the Users&lt;/b&gt;&lt;/font&gt;&lt;div&gt;&lt;font style=&quot;font-size: 13px;&quot;&gt;&lt;b&gt;and give access&lt;/b&gt;&lt;/font&gt;&lt;/div&gt;&lt;div&gt;&lt;span style=&quot;font-size: 13px;&quot;&gt;&lt;b&gt;to&amp;nbsp;&lt;/b&gt;&lt;/span&gt;&lt;b style=&quot;color: rgb(63, 63, 63); font-size: 13px; background-color: transparent;&quot;&gt;&amp;nbsp;Dashboard&lt;/b&gt;&lt;/div&gt;" style="rounded=1;whiteSpace=wrap;html=1;" parent="1" vertex="1">
                    <mxGeometry x="164" y="458" width="140" height="60" as="geometry"/>
                </mxCell>
                <mxCell id="97" style="edgeStyle=none;html=1;exitX=1;exitY=0.5;exitDx=0;exitDy=0;entryX=0;entryY=0.25;entryDx=0;entryDy=0;" edge="1" parent="1" source="8" target="69">
                    <mxGeometry relative="1" as="geometry">
                        <Array as="points">
                            <mxPoint x="-16" y="339"/>
                            <mxPoint x="-16" y="473"/>
                        </Array>
                    </mxGeometry>
                </mxCell>
                <mxCell id="99" style="edgeStyle=none;html=1;exitX=1;exitY=0.5;exitDx=0;exitDy=0;entryX=0;entryY=0.5;entryDx=0;entryDy=0;" edge="1" parent="1" source="7" target="69">
                    <mxGeometry relative="1" as="geometry"/>
                </mxCell>
                <mxCell id="100" style="edgeStyle=none;html=1;exitX=1;exitY=0.5;exitDx=0;exitDy=0;entryX=0;entryY=0.75;entryDx=0;entryDy=0;" edge="1" parent="1" source="9" target="69">
                    <mxGeometry relative="1" as="geometry">
                        <Array as="points">
                            <mxPoint x="-16" y="665"/>
                            <mxPoint x="-13" y="501"/>
                        </Array>
                    </mxGeometry>
                </mxCell>
                <mxCell id="101" style="edgeStyle=none;html=1;exitX=1;exitY=0.5;exitDx=0;exitDy=0;entryX=0;entryY=0.5;entryDx=0;entryDy=0;" edge="1" parent="1" source="69" target="66">
                    <mxGeometry relative="1" as="geometry"/>
                </mxCell>
                <mxCell id="103" value="" style="group" vertex="1" connectable="0" parent="1">
                    <mxGeometry x="358" y="314" width="135" height="90" as="geometry"/>
                </mxCell>
                <mxCell id="20" value="" style="shape=ext;double=1;rounded=0;whiteSpace=wrap;html=1;" parent="103" vertex="1">
                    <mxGeometry width="135" height="90" as="geometry"/>
                </mxCell>
                <mxCell id="23" value="&lt;font style=&quot;font-weight: normal; font-size: 14px;&quot;&gt;Admin Dashboard&lt;/font&gt;" style="text;strokeColor=none;fillColor=none;html=1;fontSize=24;fontStyle=1;verticalAlign=middle;align=center;" parent="103" vertex="1">
                    <mxGeometry x="27.5" y="25" width="80" height="40" as="geometry"/>
                </mxCell>
                <mxCell id="109" value="Data base" style="shape=cylinder3;whiteSpace=wrap;html=1;boundedLbl=1;backgroundOutline=1;size=15;" vertex="1" parent="1">
                    <mxGeometry x="17" y="597" width="105" height="140" as="geometry"/>
                </mxCell>
                <mxCell id="110" value="" style="edgeStyle=none;html=1;" edge="1" parent="1" target="66">
                    <mxGeometry relative="1" as="geometry">
                        <mxPoint x="130" y="488" as="sourcePoint"/>
                    </mxGeometry>
                </mxCell>
                <mxCell id="115" value="" style="endArrow=classic;startArrow=classic;html=1;exitX=0.5;exitY=0;exitDx=0;exitDy=0;exitPerimeter=0;" edge="1" parent="1" source="109">
                    <mxGeometry width="50" height="50" relative="1" as="geometry">
                        <mxPoint x="296" y="504" as="sourcePoint"/>
                        <mxPoint x="70" y="516" as="targetPoint"/>
                        <Array as="points"/>
                    </mxGeometry>
                </mxCell>
                <mxCell id="116" style="edgeStyle=none;html=1;exitX=1;exitY=0.5;exitDx=0;exitDy=0;entryX=0.007;entryY=0.364;entryDx=0;entryDy=0;entryPerimeter=0;" edge="1" parent="1" source="21" target="75">
                    <mxGeometry relative="1" as="geometry"/>
                </mxCell>
                <mxCell id="117" style="edgeStyle=none;html=1;exitX=1;exitY=0.5;exitDx=0;exitDy=0;entryX=0;entryY=0.5;entryDx=0;entryDy=0;" edge="1" parent="1" source="22" target="92">
                    <mxGeometry relative="1" as="geometry">
                        <Array as="points">
                            <mxPoint x="530" y="626"/>
                            <mxPoint x="530" y="751"/>
                        </Array>
                    </mxGeometry>
                </mxCell>
            </root>
        </mxGraphModel>
    </diagram>
</mxfile>